<?xml version="1.0" ?><svg data-name="Layer 1" id="Layer_1" viewBox="0 0 512 512" xmlns="http://www.w3.org/2000/svg"><defs><style>.cls-1{fill:#e54033;}.cls-2{fill:#c9c9c9;}.cls-3{fill:#fff;}</style></defs><g data-name="Book Icon" id="Book_Icon"><circle class="cls-1" cx="256" cy="256" r="256"/><g id="Book"><rect class="cls-2" height="231.02" id="Cover" rx="13.68" width="337.75" x="87.12" y="147.77"/><g id="Pages"><path class="cls-3" d="M244.14,324.29a13.66,13.66,0,0,1-16.23,13.44,248.72,248.72,0,0,0-94.48,0,13.65,13.65,0,0,1-16.25-13.43V144.73a13.72,13.72,0,0,1,10.24-13.25,208.24,208.24,0,0,1,106.52,0,13.68,13.68,0,0,1,10.2,13.24Z"/><path class="cls-3" d="M394.82,324.29a13.66,13.66,0,0,1-16.23,13.44,248.66,248.66,0,0,0-94.47,0,13.66,13.66,0,0,1-16.26-13.43V144.73a13.72,13.72,0,0,1,10.25-13.25,208.24,208.24,0,0,1,106.52,0,13.69,13.69,0,0,1,10.19,13.24Z"/></g></g></g></svg>